<svg id="visual" viewBox="0 0 1920 1080" width="1920" height="1080" xmlns="http://www.w3.org/2000/svg" xmlns:xlink="http://www.w3.org/1999/xlink" version="1.1"><rect x="0" y="0" width="1920" height="1080" fill="#2c383d"></rect><path d="M0 126L29.2 121.3C58.3 116.7 116.7 107.3 174.8 109.5C233 111.7 291 125.3 349.2 121.3C407.3 117.3 465.7 95.7 523.8 94.7C582 93.7 640 113.3 698.2 126C756.3 138.7 814.7 144.3 872.8 136.2C931 128 989 106 1047.2 98.5C1105.3 91 1163.7 98 1221.8 108.3C1280 118.7 1338 132.3 1396.2 133.3C1454.3 134.3 1512.7 122.7 1570.8 116.3C1629 110 1687 109 1745.2 116.7C1803.3 124.3 1861.7 140.7 1890.8 148.8L1920 157L1920 0L1890.8 0C1861.7 0 1803.3 0 1745.2 0C1687 0 1629 0 1570.8 0C1512.7 0 1454.3 0 1396.2 0C1338 0 1280 0 1221.8 0C1163.7 0 1105.3 0 1047.2 0C989 0 931 0 872.8 0C814.7 0 756.3 0 698.2 0C640 0 582 0 523.8 0C465.7 0 407.3 0 349.2 0C291 0 233 0 174.8 0C116.7 0 58.3 0 29.2 0L0 0Z" fill="#c29be0" stroke-linecap="round" stroke-linejoin="miter"></path></svg>